<svg width="256" height="256" version="1.1" xmlns="http://www.w3.org/2000/svg" desc="Created with imagetracer.js version 1.2.6" ><path fill="rgb(5,5,6)" stroke="rgb(5,5,6)" stroke-width="1" opacity="0.10588235294117647" d="M 0 0 L 15.5 0 L 16 3 Q 10.6 1.5 9 4.5 Q 9.8 6.8 7.5 6 L 6 9 L 3 10.5 Q 5.3 17.8 0 16 L 0 0 Z " /><path fill="rgb(5,5,6)" stroke="rgb(5,5,6)" stroke-width="1" opacity="0.10588235294117647" d="M 240 0 L 256 0 L 256 16 L 253 16 Q 254.5 11.5 250 13 L 250 7.5 Q 248.4 4.5 243 6 L 243 3 Q 238.5 4.5 240 0 Z " /><path fill="rgb(5,5,6)" stroke="rgb(5,5,6)" stroke-width="1" opacity="0.10588235294117647" d="M 253 237 L 256 237.5 L 256 256 L 237.5 256 L 237 253 L 243 253 Q 241.3 248.9 245.5 250 L 247 247 L 250 245.5 Q 248.9 241.3 253 243 L 253 237 Z " /><path fill="rgb(5,5,6)" stroke="rgb(5,5,6)" stroke-width="1" opacity="0.10588235294117647" d="M 0 240 L 3 240 L 3 243 Q 7.1 241.3 6 245.5 L 9 247 L 10.5 250 Q 14.7 248.9 13 253 L 19 253 L 19 256 L 0 256 L 0 240 Z " /><path fill="rgb(236,236,237)" stroke="rgb(236,236,237)" stroke-width="1" opacity="1" d="M 64 48 L 85.5 48 L 86 48.5 L 86 127.5 L 89 128 Q 87.3 123.9 91.5 125 L 93 121 L 96 121 L 96 118 L 99 118 L 99 115 L 102 115 L 102 112 Q 106.1 113.7 105 109.5 L 106 106 L 109 106 Q 107.5 101.5 112 103 L 112 99 L 115 99 L 115 96 L 118 96 Q 116.3 91.9 120.5 93 L 122 90 L 125 88.5 Q 123.9 84.3 128 86 L 128 83 L 131 83 L 131 80 L 134 80 L 134 77.5 L 137 76 L 138.5 73 Q 140.8 73.8 140 71.5 L 141 68 L 144 68 L 144 64 L 147 64 Q 145.3 59.9 149.5 61 L 151 58 L 154 56.5 L 154 54 L 157 54 L 157 51 L 160 51 L 160.5 48 L 185 48 L 185 51 L 182 51 L 182 54 L 179 54 Q 180.5 58.5 176 57 L 176 61 L 173 61 L 173 64 L 170 64 Q 171.7 68.1 167.5 67 L 166 70 L 163 71.5 L 163 74 L 160 74 L 160 77 L 157 77 L 157 80 L 154 80 L 154 83 Q 149.9 81.3 151 85.5 L 147 87 L 147 90 L 144 90 L 144 93 L 141 93 L 141 96 Q 136.9 94.3 138 98.5 L 137 102 L 134 102 Q 135.5 105.7 132.5 105 L 131 109 L 128 109 L 128 112 L 125 112 L 125 115 L 122 115 Q 123.7 119.1 119.5 118 L 118 122 Q 113.5 120.5 115 125 L 118 125 L 118 128 L 121 128 Q 119.3 132.1 123.5 131 L 125 135 L 128 135 L 128 140 Q 132.9 138.4 131 144 L 135 144 L 135 147 L 138 147 Q 136.5 150.8 139.5 150 L 141 154 L 144 154 L 144 157 L 147 157 L 147 160 Q 151.1 158.3 150 162.5 L 151 166 L 154 166 Q 152.5 170.5 157 169 L 157 173 L 160 173 L 160 176 L 163 176 L 163 179 Q 167.1 177.3 166 181.5 L 169 183 L 170.5 186 Q 172.8 185.3 172 187.5 L 173 192 L 176 192 L 176 195 L 179 195 L 179 198 Q 183.1 196.3 182 200.5 L 186 202 L 186 205 Q 189.3 203.9 188 208 L 163.5 208 L 163 205 L 160 205 L 160 202 L 157 202 L 157 199.5 L 154 198 L 152.5 195 Q 148.3 196.1 150 192 L 147 192 L 147 189 L 144 189 L 144 183 L 141.5 183 L 140 180 L 137 178.5 Q 138.1 174.3 134 176 L 134 173 L 131 173 L 131 170 L 128 170 L 128 166 L 125 166 Q 126.5 161.5 122 163 L 122 160.5 L 121 157 L 118 157 L 118 154 L 115 154 Q 116.5 149.5 112 151 L 112 147 L 109 147 L 109 144 L 106 144 L 106 141 Q 101.9 142.7 103 138.5 L 100.5 137 L 96 138 L 96 141 L 93 141 L 93 144 Q 88.9 142.3 90 146.5 L 87 148 L 86 150.5 L 86 208 L 67.5 208 L 67 205 L 64 204.5 L 64 48 Z " /><path fill="rgb(29,31,37)" stroke="rgb(29,31,37)" stroke-width="1" opacity="1" d="M 16 0 L 239.5 0 L 240 3 L 243 3 L 243 6 L 248.5 6 Q 251.5 7.6 250 13 L 253 13 L 253 16 L 256 16.5 L 256 237 L 253 237 L 253 243 Q 248.9 241.3 250 245.5 L 247 247 L 245.5 250 Q 241.3 248.9 243 253 L 237 253 L 236.5 256 L 19 256 L 19 253 L 13 253 Q 14.7 248.9 10.5 250 L 9 247 L 6 245.5 L 6 243 L 3 243 L 3 240 L 0 239.5 L 0 16 Q 5.3 17.8 3 10.5 L 6 9 L 7.5 6 Q 9.8 6.8 9 4.5 Q 10.6 1.5 16 3 L 16 0 Z M 64 48 L 64 205 L 67 205 L 68 208 L 86 208 L 86 151 L 87 148 L 90 147 Q 89 142 93 144 L 93 141 L 96 141 L 96 138 L 101 137 L 103 139 Q 102 143 106 141 L 106 144 L 109 144 L 109 147 L 112 147 L 112 151 Q 117 150 115 154 L 118 154 L 118 157 L 121 157 L 122 161 L 122 163 Q 127 162 125 166 L 128 166 L 128 170 L 131 170 L 131 173 L 134 173 L 134 176 Q 138 174 137 179 L 140 180 L 142 183 L 144 183 L 144 189 L 147 189 L 147 192 L 150 192 Q 148 196 153 195 L 154 198 L 157 200 L 157 202 L 160 202 L 160 205 L 163 205 L 164 208 L 188 208 Q 189 204 186 205 L 186 202 L 182 201 Q 183 196 179 198 L 179 195 L 176 195 L 176 192 L 173 192 L 172 188 Q 173 185 171 186 L 169 183 L 166 182 Q 167 177 163 179 L 163 176 L 160 176 L 160 173 L 157 173 L 157 169 Q 153 171 154 166 L 151 166 L 150 163 Q 151 158 147 160 L 147 157 L 144 157 L 144 154 L 141 154 L 140 150 Q 136 151 138 147 L 135 147 L 135 144 L 131 144 Q 133 138 128 140 L 128 135 L 125 135 L 124 131 Q 119 132 121 128 L 118 128 L 118 125 L 115 125 Q 114 121 118 122 L 120 118 Q 124 119 122 115 L 125 115 L 125 112 L 128 112 L 128 109 L 131 109 L 133 105 Q 136 106 134 102 L 137 102 L 138 99 Q 137 94 141 96 L 141 93 L 144 93 L 144 90 L 147 90 L 147 87 L 151 86 Q 150 81 154 83 L 154 80 L 157 80 L 157 77 L 160 77 L 160 74 L 163 74 L 163 72 L 166 70 L 168 67 Q 172 68 170 64 L 173 64 L 173 61 L 176 61 L 176 57 Q 181 59 179 54 L 182 54 L 182 51 L 185 51 L 185 48 L 161 48 L 160 51 L 157 51 L 157 54 L 154 54 L 154 57 L 151 58 L 150 61 Q 145 60 147 64 L 144 64 L 144 68 L 141 68 L 140 72 Q 141 74 139 73 L 137 76 L 134 78 L 134 80 L 131 80 L 131 83 L 128 83 L 128 86 Q 124 84 125 89 L 122 90 L 121 93 Q 116 92 118 96 L 115 96 L 115 99 L 112 99 L 112 103 Q 108 102 109 106 L 106 106 L 105 110 Q 106 114 102 112 L 102 115 L 99 115 L 99 118 L 96 118 L 96 121 L 93 121 L 92 125 Q 87 124 89 128 L 86 128 L 86 49 L 86 48 L 64 48 Z " /></svg>